<?xml version="1.0" encoding="UTF-8" standalone="no"?>
<svg
   xmlns:dc="http://purl.org/dc/elements/1.1/"
   xmlns:cc="http://creativecommons.org/ns#"
   xmlns:rdf="http://www.w3.org/1999/02/22-rdf-syntax-ns#"
   xmlns:svg="http://www.w3.org/2000/svg"
   xmlns="http://www.w3.org/2000/svg"
   viewBox="0 0 1440 1440"
   height="1440"
   width="1440"
   xml:space="preserve"
   version="1.1"
   id="svg2"><metadata
     id="metadata8"><rdf:RDF><cc:Work
         rdf:about=""><dc:format>image/svg+xml</dc:format><dc:type
           rdf:resource="http://purl.org/dc/dcmitype/StillImage" /></cc:Work></rdf:RDF></metadata><defs
     id="defs6"><clipPath
       id="clipPath16"
       clipPathUnits="userSpaceOnUse"><path
         id="path18"
         d="m 0,1080 1080,0 L 1080,0 0,0 0,1080 Z" /></clipPath></defs><g
     transform="matrix(1.3333333,0,0,-1.3333333,-480,1440)"
     id="g10"><g
       id="g12"><g
         clip-path="url(#clipPath16)"
         id="g14"><g
           transform="translate(318.1382,279.3552)"
           id="g20"><path
             id="path22"
             style="fill:#ffffff;fill-opacity:1;fill-rule:nonzero;stroke:none"
             d="m 0,0 176.678,0 48.183,66.252 166.47,0.315 c 0,0 0.169,-45.154 0.169,-66.567 l 126.485,0 0,517.985 -152.584,0 C 350.736,495.802 0,0 0,0 m 396.059,345.575 0,-165.512 -104.945,0.63 104.945,164.882 z" /></g><g
           transform="translate(862.5002,792.3415)"
           id="g24"><path
             id="path26"
             style="fill:#ffffff;fill-opacity:1;fill-rule:nonzero;stroke:none"
             d="m 0,0 0,-511.965 c 130.7,-2.385 231.17,-7.1 305.166,40.154 71.016,45.35 126.428,133.561 116.455,246.945 C 411.07,-104.926 314.388,-4.146 188.721,6.02 126.238,11.074 2.005,6.02 2.005,6.02 2.005,6.02 -0.174,2.85 0,0 m 126.483,-128.495 c 81.537,2.954 138.036,-38.998 146.564,-106.411 11.421,-90.29 -54.969,-149.006 -150.575,-142.544 l 0,242.93 c -0.093,3.438 1.494,5.203 4.011,6.025" /></g><g
           transform="translate(1268.4761,782.9544)"
           id="g28"><path
             id="path30"
             style="fill:#ffffff;fill-opacity:1;fill-rule:nonzero;stroke:none"
             d="m 0,0 c 34.597,8.697 45.106,-25.93 60.226,-50.193 33.003,-52.921 57.835,-120.968 58.229,-198.762 0.573,-111.59 -47.587,-193.47 -92.358,-248.955 l -22.078,0 c -1.521,9.081 5.776,17.149 10.03,24.093 34.156,55.711 65.807,132.595 66.258,220.847 C 80.823,-151.739 43.566,-67.093 0,0" /></g><g
           transform="translate(1375.8101,782.9544)"
           id="g32"><path
             id="path34"
             style="fill:#ffffff;fill-opacity:1;fill-rule:nonzero;stroke:none"
             d="m 0,0 c 34.597,8.697 45.099,-25.935 60.226,-50.193 33.003,-52.921 57.83,-120.968 58.229,-198.762 0.573,-111.59 -47.587,-193.47 -92.358,-248.955 l -22.078,0 c -1.521,9.081 5.774,17.151 10.03,24.093 34.156,55.711 65.808,132.595 66.258,220.847 C 80.823,-151.739 43.566,-67.093 0,0" /></g><g
           transform="translate(1482.4526,782.9544)"
           id="g36"><path
             id="path38"
             style="fill:#ffffff;fill-opacity:1;fill-rule:nonzero;stroke:none"
             d="m 0,0 c 34.597,8.697 45.099,-25.935 60.226,-50.193 33.003,-52.921 57.83,-120.968 58.229,-198.762 0.573,-111.59 -47.587,-193.47 -92.358,-248.955 l -22.078,0 c -1.521,9.081 5.774,17.15 10.03,24.093 34.156,55.711 65.807,132.595 66.258,220.847 C 80.823,-151.739 43.566,-67.093 0,0" /></g></g></g></g></svg>
