<svg xmlns="http://www.w3.org/2000/svg" width="48" height="48" viewBox="0 96 48 48"><path d="m25.549 98-2.437 2.434 4.634 4.635H26.38c-2.97 0-5.753.555-8.347 1.664-2.594 1.109-4.861 2.633-6.802 4.574-1.94 1.94-3.465 4.207-4.574 6.802-1.109 2.594-1.664 5.377-1.664 8.347h3.565c0-4.967 1.683-9.178 5.05-12.636 3.366-3.458 7.525-5.187 12.475-5.187h1.307l-4.335 4.338 2.495 2.494 8.732-8.732zm-11.553 20.53v4.689h10.297v5.249h-6.978v4.688h6.978v5.156H13.996V143h10.808c1.06 0 1.948-.395 2.666-1.186.718-.79 1.077-1.771 1.077-2.94v-16.217c0-1.169-.36-2.15-1.077-2.94-.718-.79-1.605-1.186-2.666-1.186zm21.174.168c-1.149 0-2.11.389-2.884 1.163-.78.78-1.172 1.745-1.172 2.894v15.942c0 1.15.388 2.11 1.162 2.885.78.78 1.745 1.17 2.894 1.17h7.649c1.149 0 2.11-.386 2.885-1.16.78-.78 1.17-1.746 1.17-2.895v-15.942c0-1.15-.387-2.11-1.161-2.885-.78-.78-1.745-1.172-2.894-1.172zm.552 4.516h6.542v14.931h-6.542z" style="fill:#fff;stroke-width:.059409"/></svg>