<svg width="48" height="48" version="1.1" viewBox="0 96 960 960" xmlns="http://www.w3.org/2000/svg">
<path d="m453.01 137.02-41.016 40.977 78.008 78.008h-23.008c-50 0-96.841 9.3412-140.51 28.008-43.667 18.667-81.826 44.326-114.49 76.992-32.667 32.667-58.326 70.826-76.992 114.49-18.667 43.667-28.008 90.508-28.008 140.51h60c0-83.6 28.333-154.5 85-212.7 56.667-58.2 126.67-87.305 210-87.305h21.992l-72.969 73.008 41.992 41.992 146.99-146.99-146.99-146.99zm-165 364.45v234.26h191.95v84.648h-191.95v75.586h214.65c14.108 0 26.173-5.04 36.25-15.117 10.077-10.077 15.117-22.142 15.117-36.25v-131.52c0-14.108-5.04-26.212-15.117-36.289-10.077-10.077-22.142-15.117-36.25-15.117h-139.06v-86.133h190.43v-74.062h-266.02z" fill="#fff"/>
</svg>