<svg width="48" height="48" version="1.1" viewBox="0 96 960 960" xmlns="http://www.w3.org/2000/svg">
<path d="m413.01 137.02-41.016 40.977 78.008 78.008h-23.008c-50 0-96.841 9.3412-140.51 28.008-43.667 18.667-81.826 44.326-114.49 76.992-32.667 32.667-58.326 70.826-76.992 114.49-18.667 43.667-28.008 90.508-28.008 140.51h60c0-83.6 28.333-154.5 85-212.7 56.667-58.2 126.67-87.305 210-87.305h21.992l-72.969 73.008 41.992 41.992 146.99-146.99-146.99-146.99zm-163.67 368.75v76.016h83.75v328.87h77.578v-404.88h-161.33zm311.8 0c-19.339 0-35.524 6.5004-48.555 19.531-13.134 13.134-19.727 29.372-19.727 48.711v268.4c0 19.339 6.5395 35.524 19.57 48.555 13.134 13.134 29.372 19.688 48.711 19.688h128.75c19.339 0 35.524-6.5005 48.555-19.531 13.134-13.134 19.688-29.372 19.688-48.711v-268.4c0-19.339-6.5004-35.524-19.531-48.555-13.134-13.134-29.372-19.688-48.711-19.688h-128.75zm9.2969 76.016h110.16v251.29h-110.16v-251.29z" fill="#fff"/>
</svg>