<svg xmlns="http://www.w3.org/2000/svg" width="48" height="48" viewBox="0 96 48 48"><path d="m25.549 97.016-2.437 2.434 4.634 4.634H26.38c-2.97 0-5.753.555-8.347 1.664-2.594 1.11-4.861 2.634-6.802 4.574-1.94 1.941-3.465 4.208-4.574 6.802-1.109 2.594-1.664 5.377-1.664 8.348h3.565c0-4.967 1.683-9.179 5.05-12.636 3.366-3.458 7.525-5.187 12.475-5.187h1.307l-4.335 4.337 2.495 2.495 8.732-8.733zm-11.553 20.53v4.688h10.297v5.25h-6.978v4.687h6.978v5.157H13.996v4.688h10.808c1.06 0 1.948-.396 2.666-1.186.718-.79 1.077-1.772 1.077-2.94v-16.217c0-1.169-.36-2.15-1.077-2.94-.718-.791-1.605-1.186-2.666-1.186zm21.174.168c-1.149 0-2.11.388-2.884 1.162-.78.78-1.172 1.745-1.172 2.894v15.943c0 1.15.388 2.11 1.162 2.885.78.78 1.745 1.17 2.894 1.17h7.649c1.149 0 2.11-.387 2.885-1.161.78-.78 1.17-1.745 1.17-2.894V121.77c0-1.149-.387-2.11-1.161-2.884-.78-.78-1.745-1.172-2.894-1.172zm.552 4.516h6.542v14.93h-6.542z" style="fill:#fff;stroke-width:.059409"/></svg>