<svg xmlns="http://www.w3.org/2000/svg" width="48" height="48" viewBox="0 96 48 48"><path d="m29.508 97.016-2.431 2.43 4.625 4.625h-1.364c-2.965 0-5.742.553-8.332 1.66-2.589 1.107-4.851 2.628-6.788 4.565-1.937 1.937-3.458 4.2-4.565 6.789-1.107 2.589-1.66 5.366-1.66 8.33h3.557c0-4.956 1.68-9.16 5.04-12.61 3.36-3.451 7.51-5.177 12.451-5.177h1.304l-4.326 4.329 2.49 2.49 8.715-8.716zm-9.783 21.61v13.889h11.382v5.019H19.725v4.482h12.727a2.93 2.93 0 0 0 2.15-.897 2.93 2.93 0 0 0 .896-2.15v-7.797c0-.837-.299-1.555-.896-2.152a2.93 2.93 0 0 0-2.15-.897h-8.245v-5.107h11.29v-4.39z" style="fill:#fff;stroke-width:.0592928"/></svg>