<svg xmlns="http://www.w3.org/2000/svg" width="48" height="48" viewBox="0 96 48 48"><path d="m23.119 97.016-2.386 2.383 4.538 4.538h-1.339c-2.908 0-5.633.543-8.173 1.629-2.54 1.086-4.76 2.578-6.66 4.478-1.9 1.9-3.392 4.12-4.478 6.66-1.085 2.54-1.629 5.264-1.629 8.173h3.49c0-4.863 1.648-8.987 4.944-12.372 3.297-3.385 7.368-5.078 12.216-5.078h1.279l-4.245 4.246 2.443 2.443 8.55-8.55zm-9.52 21.449v4.421h4.871v19.13h4.513v-23.551zm18.136 0c-1.125 0-2.066.378-2.824 1.136-.764.764-1.148 1.708-1.148 2.833v15.612c0 1.125.38 2.066 1.139 2.824.764.764 1.708 1.146 2.833 1.146h7.489c1.125 0 2.066-.378 2.824-1.136.764-.764 1.145-1.709 1.145-2.834v-15.612c0-1.125-.378-2.066-1.136-2.824-.764-.764-1.708-1.145-2.833-1.145zm.54 4.421h6.408v14.617h-6.407z" style="fill:#fff;stroke-width:.0581671"/></svg>