<svg xmlns="http://www.w3.org/2000/svg" width="48" height="48" viewBox="0 96 48 48"><path fill="#fff" d="M41.327 126.907c0-4.87-1.65-9.001-4.952-12.392-3.301-3.39-7.38-5.086-12.235-5.086h-1.282l4.253 4.253-2.447 2.447-8.564-8.564L24.664 99l2.39 2.389-4.545 4.544h1.34c2.913 0 5.641.544 8.186 1.632 2.544 1.087 4.767 2.582 6.67 4.486 1.904 1.903 3.4 4.127 4.487 6.67 1.087 2.545 1.631 5.273 1.631 8.186zm-33.27 15.958v-19.161H3.176v-4.429h9.4v23.59zm13.286 0c-1.127 0-2.073-.383-2.838-1.148-.76-.76-1.14-1.702-1.14-2.83v-15.635c0-1.127.384-2.073 1.149-2.838.759-.76 1.702-1.139 2.829-1.139h7.501c1.127 0 2.073.383 2.838 1.148.76.76 1.14 1.702 1.14 2.829v15.636c0 1.127-.384 2.073-1.149 2.838-.759.76-1.702 1.139-2.829 1.139zm.542-4.52h6.417v-14.641h-6.417z" style="stroke-width:.0582621"/></svg>