<svg width="48" height="48" version="1.1" viewBox="0 96 960 960" xmlns="http://www.w3.org/2000/svg">
<path d="m493.98 137.02-146.99 146.99 146.99 146.99 42.031-41.992-73.008-73.008h21.992c83.333 0 153.33 29.105 210 87.305s85 129.1 85 212.7h60c0-50-9.3412-96.841-28.008-140.51-18.667-43.667-44.326-81.826-76.992-114.49s-70.826-58.326-114.49-76.992c-43.667-18.667-90.508-28.008-140.51-28.008h-23.008l78.008-78.008-41.016-40.977zm-136.56 366.09v234.3h191.95v84.648h-191.95v75.586h214.65c14.108 0 26.212-5.04 36.289-15.117 10.077-10.077 15.117-22.142 15.117-36.25v-131.52c0-14.108-5.04-26.212-15.117-36.289-10.077-10.077-22.181-15.117-36.289-15.117h-139.06v-86.133h190.47v-74.102h-266.05z" fill="#fff"/>
</svg>