<svg width="48" height="48" version="1.1" viewBox="0 96 960 960" xmlns="http://www.w3.org/2000/svg">
<path d="m780 616c0-83.6-28.333-154.5-85-212.7s-126.67-87.3-210-87.3h-22l73 73-42 42-147-147 147-147 41 41-78 78h23c50 0 96.833 9.3333 140.5 28s81.833 44.333 114.5 77 58.333 70.833 77 114.5 28 90.5 28 140.5zm-571.05 273.89v-328.87h-83.77v-76.013h161.33v404.89zm228.04 0c-19.339 0-35.576-6.5671-48.711-19.701-13.031-13.031-19.546-29.216-19.546-48.555v-268.37c0-19.339 6.5671-35.576 19.701-48.711 13.031-13.031 29.216-19.546 48.555-19.546h128.76c19.339 0 35.576 6.5671 48.711 19.701 13.031 13.031 19.546 29.216 19.546 48.555v268.37c0 19.339-6.5671 35.576-19.701 48.711-13.031 13.031-29.216 19.546-48.555 19.546zm9.3078-77.565h110.14v-251.31h-110.14z" fill="#fff"/>
</svg>