<svg xmlns="http://www.w3.org/2000/svg" width="48" height="48" viewBox="0 96 48 48"><path fill="#fff" d="M42.315 125.63c0-4.997-1.694-9.235-5.08-12.713-3.388-3.479-7.571-5.218-12.552-5.218h-1.315l4.363 4.363-2.51 2.51-8.787-8.786L25.221 97l2.45 2.45-4.662 4.663h1.375c2.988 0 5.788.557 8.397 1.673 2.61 1.116 4.892 2.65 6.844 4.602 1.953 1.953 3.487 4.234 4.602 6.844 1.116 2.61 1.674 5.41 1.674 8.398zM8.183 142v-19.657H3.176V117.8h9.643V142Zm13.63 0c-1.156 0-2.127-.393-2.912-1.178-.778-.778-1.168-1.746-1.168-2.902v-16.04c0-1.156.393-2.127 1.178-2.912.779-.779 1.746-1.168 2.902-1.168h7.696c1.156 0 2.126.392 2.911 1.177.779.78 1.168 1.747 1.168 2.903v16.04c0 1.156-.392 2.127-1.177 2.912-.779.779-1.746 1.168-2.902 1.168Zm.556-4.636h6.583v-15.02H22.37z" style="stroke-width:.0597701"/></svg>