<svg width="48" height="48" version="1.1" viewBox="0 96 960 960" xmlns="http://www.w3.org/2000/svg">
<path d="m493.98 137.02-146.99 146.99 146.99 146.99 42.031-41.992-73.008-73.008h21.992c83.333 0 153.33 29.105 210 87.305s85 129.1 85 212.7h60c0-50-9.3412-96.841-28.008-140.51-18.667-43.667-44.326-81.826-76.992-114.49s-70.826-58.326-114.49-76.992c-43.667-18.667-90.508-28.008-140.51-28.008h-23.008l78.008-78.008-41.016-40.977zm-395.43 345.59v78.906h173.32v88.359h-117.46v78.906h117.46v86.797h-173.32v78.906h181.91c17.857 0 32.803-6.6534 44.883-19.961 12.08-13.308 18.125-29.82 18.125-49.492v-272.97c0-19.672-6.0451-36.185-18.125-49.492-12.08-13.308-27.026-19.961-44.883-19.961h-181.91zm378.44 2.3828c-19.339 0-35.524 6.5395-48.555 19.57-13.134 13.134-19.727 29.372-19.727 48.711v268.36c0 19.339 6.5395 35.524 19.57 48.555 13.134 13.134 29.372 19.727 48.711 19.727h128.75c19.339 0 35.524-6.5395 48.555-19.57 13.134-13.134 19.688-29.372 19.688-48.711v-268.36c-1e-5 -19.339-6.5004-35.524-19.531-48.555-13.134-13.134-29.372-19.727-48.711-19.727h-128.75zm9.2969 76.016h110.16v251.33h-110.16v-251.33z" fill="#fff"/>
</svg>