<svg xmlns="http://www.w3.org/2000/svg" width="48" height="48" viewBox="0 96 48 48"><path d="m17.689 98-8.697 8.696 8.697 8.697 2.486-2.485-4.32-4.319h1.302c4.93 0 9.071 1.722 12.424 5.165 3.352 3.443 5.029 7.638 5.029 12.584h3.55c0-2.958-.553-5.73-1.658-8.313-1.104-2.583-2.622-4.841-4.555-6.774-1.932-1.932-4.19-3.45-6.773-4.555-2.584-1.104-5.355-1.657-8.313-1.657H15.5l4.615-4.615zm-8.08 21.659v13.861h11.357v5.008H9.609V143h12.7c.834 0 1.55-.298 2.146-.894.596-.597.895-1.31.895-2.145v-7.781c0-.835-.299-1.55-.895-2.147a2.929 2.929 0 0 0-2.147-.894h-8.227v-5.096H25.35v-4.384z" style="fill:#fff;stroke-width:.0591619"/></svg>