<svg xmlns="http://www.w3.org/2000/svg" width="48" height="48" viewBox="0 96 48 48"><path d="m25.197 97.016-9.16 9.16 9.16 9.16 2.62-2.617-4.55-4.55h1.37c5.194 0 9.556 1.814 13.087 5.441 3.532 3.627 5.297 8.045 5.297 13.255h3.74c0-3.116-.583-6.035-1.746-8.756s-2.762-5.1-4.798-7.135c-2.036-2.036-4.414-3.635-7.135-4.798-2.721-1.163-5.64-1.745-8.756-1.745h-1.434l4.861-4.862ZM.555 118.552v4.917h10.8v5.507h-7.32v4.917h7.32v5.41H.556v4.917H11.89c1.113 0 2.045-.415 2.797-1.244.753-.83 1.13-1.859 1.13-3.085v-17.01c0-1.227-.377-2.256-1.13-3.085-.752-.83-1.684-1.244-2.797-1.244zm23.583.149c-1.205 0-2.213.407-3.025 1.22-.819.818-1.23 1.83-1.23 3.035v16.724c0 1.205.408 2.213 1.22 3.025.818.819 1.83 1.23 3.035 1.23h8.024c1.205 0 2.214-.408 3.026-1.22.818-.818 1.227-1.83 1.227-3.035v-16.724c0-1.205-.405-2.214-1.217-3.026-.819-.819-1.83-1.23-3.036-1.23zm.58 4.737h6.865V139.1h-6.865Z" style="fill:#fff;stroke-width:.0623187"/></svg>