<svg xmlns="http://www.w3.org/2000/svg" width="48" height="48" viewBox="0 96 48 48"><path d="m26.047 98-8.733 8.732 8.733 8.733 2.496-2.494-4.336-4.338h1.307c4.95 0 9.108 1.73 12.474 5.187 3.367 3.458 5.051 7.668 5.051 12.635h3.565c0-2.97-.556-5.751-1.665-8.346-1.109-2.594-2.633-4.862-4.574-6.802-1.94-1.941-4.208-3.466-6.803-4.575-2.594-1.109-5.375-1.664-8.345-1.664H23.85l4.634-4.634L26.047 98zM2.555 118.531v4.688h10.297v5.25H5.873v4.687h6.979v5.156H2.555V143H13.36c1.061 0 1.95-.395 2.668-1.186.718-.79 1.076-1.772 1.076-2.94v-16.218c0-1.168-.358-2.149-1.076-2.94-.717-.79-1.607-1.185-2.668-1.185H2.555zm22.482.14c-1.149 0-2.11.39-2.885 1.165-.78.78-1.172 1.744-1.172 2.893v15.943c0 1.149.388 2.11 1.163 2.885.78.78 1.745 1.172 2.894 1.172h7.649c1.148 0 2.11-.388 2.884-1.163.78-.78 1.17-1.745 1.17-2.894v-15.943c0-1.15-.386-2.111-1.16-2.885-.78-.78-1.746-1.172-2.894-1.172h-7.649zm.553 4.518h6.545v14.93H25.59v-14.93z" style="fill:#fff;stroke-width:.059409"/></svg>